{"title":"Ghost.Hunters.International.S02E23.Amsterdamned.WS.DSR.XviD-[NY2","uid":6131705,"size":369637376,"categoryP":"video","categoryS":"tv_shows","magnet":"?xt=urn:btih:efe3939c38e6f677c97c6ac02200198c85f03fde&amp;dn=Ghost.Hunters.International.S02E23.Amsterdamned.WS.DSR.XviD-%5BNY2&amp;tr=udp%3A%2F%2Ftracker.openbittorrent.com%3A80&amp;tr=udp%3A%2F%2Fopen.demonii.com%3A1337&amp;tr=udp%3A%2F%2Ftracker.coppersurfer.tk%3A6969&amp;tr=udp%3A%2F%2Fexodus.desync.com%3A6969","seeders":0,"leechers":0,"uploader":"trialNerror","files":1,"time":1296152048,"description":"Format                           : AVI\nFormat/Info                      : Audio Video Interleave\nFile size                        : 353 MiB\nDuration                         : 43mn 35s\nOverall bit rate                 : 1 130 Kbps\nWriting application              : VirtualDubMod 1.5.4.1 (build 2178/release)\nWriting library                  : VirtualDubMod build 2178/release\n\nVideo\nID                               : 0\nFormat                           : MPEG-4 Visual\nFormat profile                   : Advanced Simple@L5\nFormat settings, BVOP            : Yes\nFormat settings, QPel            : No\nFormat settings, GMC             : No warppoints\nFormat settings, Matrix          : Custom\nCodec ID                         : XVID\nCodec ID/Hint                    : XviD\nDuration                         : 43mn 35s\nBit rate                         : 948 Kbps\nWidth                            : 512 pixels\nHeight                           : 288 pixels\nDisplay aspect ratio             : 16:9\nFrame rate                       : 29.970 fps\nColor space                      : YUV\nChroma subsampling               : 4:2:0\nBit depth                        : 8 bits\nScan type                        : Progressive\nBits/(Pixel*Frame)               : 0.215\nStream size                      : 296 MiB (84%)\nWriting library                  : XviD 1.2.1 (UTC 2008-12-04)\n\nAudio\nID                               : 1\nFormat                           : MPEG Audio\nFormat version                   : Version 1\nFormat profile                   : Layer 3\nMode                             : Joint stereo\nCodec ID                         : 55\nCodec ID/Hint                    : MP3\nDuration                         : 43mn 35s\nBit rate mode                    : Variable\nBit rate                         : 176 Kbps\nChannel(s)                       : 2 channels\nSampling rate                    : 48.0 KHz\nStream size                      : 52.6 MiB (15%)\nAlignment                        : Aligned on interleaves\nInterleave, duration             : 24 ms (0.72 video frame)\nInterleave, preload duration     : 546 ms\nWriting library                  : LAME3.98r\nEncoding settings                : -m j -V 4 -q 2 -lowpass 18.6 --abr 176\n\n","torrent":{"xt":"urn:btih:efe3939c38e6f677c97c6ac02200198c85f03fde","amp;dn":"Ghost.Hunters.International.S02E23.Amsterdamned.WS.DSR.XviD-%5BNY2","amp;tr":["udp%3A%2F%2Ftracker.openbittorrent.com%3A80","udp%3A%2F%2Fopen.demonii.com%3A1337","udp%3A%2F%2Ftracker.coppersurfer.tk%3A6969","udp%3A%2F%2Fexodus.desync.com%3A6969"],"infoHash":"efe3939c38e6f677c97c6ac02200198c85f03fde","infoHashBuffer":{"type":"Buffer","data":[239,227,147,156,56,230,246,119,201,124,106,192,34,0,25,140,133,240,63,222]},"announce":[],"urlList":[]}}